# 3ds Max Wavefront OBJ Exporter v0.97b - (c)2007 guruware
# File Created: 27.02.2022 20:44:05

mtllib flaggg.mtl

#
# object flag
#

v  6.9663 0.0000 0.8371
v  6.4822 0.0000 -1.9082
v  6.4822 9.5683 -1.9082
v  6.9663 9.5683 0.8371
v  5.0884 0.0000 -4.3224
v  5.0884 9.5683 -4.3224
v  2.9529 0.0000 -6.1143
v  2.9529 9.5683 -6.1143
v  0.3333 0.0000 -7.0677
v  0.3333 9.5683 -7.0677
v  -2.4544 0.0000 -7.0677
v  -2.4544 9.5683 -7.0677
v  -5.0739 0.0000 -6.1143
v  -5.0739 9.5683 -6.1143
v  -7.2094 0.0000 -4.3224
v  -7.2094 9.5683 -4.3224
v  -8.6032 0.0000 -1.9082
v  -8.6032 9.5683 -1.9082
v  -9.0873 0.0000 0.8371
v  -9.0873 9.5683 0.8371
v  -8.6032 0.0000 3.5825
v  -8.6032 9.5683 3.5825
v  -7.2094 0.0000 5.9967
v  -7.2094 9.5683 5.9967
v  -5.0739 0.0000 7.7885
v  -5.0739 9.5683 7.7885
v  -2.4544 0.0000 8.7420
v  -2.4544 9.5683 8.7420
v  0.3333 0.0000 8.7420
v  0.3333 9.5683 8.7420
v  2.9529 0.0000 7.7886
v  2.9529 9.5683 7.7885
v  5.0884 0.0000 5.9967
v  5.0884 9.5683 5.9967
v  6.4822 0.0000 3.5825
v  6.4822 9.5683 3.5825
v  2.6391 11.3777 -0.5094
v  2.8765 11.3777 0.8371
v  1.9554 11.3777 -1.6935
v  0.9080 11.3777 -2.5724
v  -0.3769 11.3777 -3.0401
v  -1.7442 11.3777 -3.0401
v  -3.0290 11.3777 -2.5724
v  -4.0764 11.3777 -1.6935
v  -4.7601 11.3777 -0.5094
v  -4.9975 11.3777 0.8371
v  -4.7601 11.3777 2.1837
v  -4.0764 11.3777 3.3678
v  -3.0290 11.3777 4.2467
v  -1.7442 11.3777 4.7143
v  -0.3769 11.3777 4.7143
v  0.9080 11.3777 4.2467
v  1.9554 11.3777 3.3678
v  2.6391 11.3777 2.1837
v  2.6391 386.6105 -0.5094
v  2.8765 386.6105 0.8371
v  1.9554 386.6105 -1.6935
v  0.9080 386.6105 -2.5724
v  -0.3769 386.6105 -3.0400
v  -1.7442 386.6105 -3.0400
v  -3.0290 386.6105 -2.5724
v  -4.0764 386.6105 -1.6935
v  -4.7601 386.6105 -0.5094
v  -4.9975 386.6105 0.8371
v  -4.7601 386.6105 2.1837
v  -4.0764 386.6105 3.3678
v  -3.0290 386.6105 4.2467
v  -1.7442 386.6105 4.7143
v  -0.3769 386.6105 4.7143
v  0.9080 386.6105 4.2467
v  1.9554 386.6105 3.3678
v  2.6391 386.6105 2.1837
v  5.5790 388.2309 -1.5794
v  6.0051 388.2309 0.8371
v  4.3521 388.2309 -3.7045
v  2.4723 388.2309 -5.2819
v  0.1664 388.2309 -6.1211
v  -2.2874 388.2309 -6.1211
v  -4.5933 388.2309 -5.2819
v  -6.4731 388.2309 -3.7045
v  -7.7000 388.2309 -1.5794
v  -8.1261 388.2309 0.8371
v  -7.7000 388.2309 3.2537
v  -6.4731 388.2309 5.3788
v  -4.5933 388.2309 6.9562
v  -2.2875 388.2309 7.7954
v  0.1664 388.2309 7.7954
v  2.4723 388.2309 6.9562
v  4.3521 388.2309 5.3788
v  5.5790 388.2309 3.2537
v  5.5790 389.7300 -1.5794
v  6.0051 389.7300 0.8371
v  4.3521 389.7300 -3.7046
v  2.4723 389.7300 -5.2819
v  0.1664 389.7300 -6.1211
v  -2.2874 389.7300 -6.1211
v  -4.5933 389.7300 -5.2819
v  -6.4731 389.7300 -3.7046
v  -7.7000 389.7300 -1.5794
v  -8.1261 389.7300 0.8371
v  -7.7000 389.7300 3.2537
v  -6.4731 389.7300 5.3788
v  -4.5933 389.7300 6.9562
v  -2.2875 389.7300 7.7954
v  0.1664 389.7300 7.7954
v  2.4723 389.7300 6.9562
v  4.3521 389.7300 5.3788
v  5.5790 389.7300 3.2537
v  5.1820 390.1460 -1.4350
v  4.0285 390.1460 -3.4330
v  2.2611 390.1460 -4.9160
v  5.1820 390.1460 3.1092
v  0.0931 390.1460 -5.7051
v  -2.2141 390.1460 -5.7051
v  -6.1495 390.1460 -3.4330
v  -4.3821 390.1460 -4.9160
v  -7.3031 390.1460 -1.4350
v  -7.7037 390.1460 0.8371
v  -6.1495 390.1460 5.1073
v  -7.3031 390.1460 3.1092
v  -4.3821 390.1460 6.5903
v  -2.2141 390.1460 7.3794
v  2.2611 390.1460 6.5903
v  0.0931 390.1460 7.3794
v  4.0285 390.1460 5.1073
v  5.5827 390.1460 0.8371
v  5.8995 390.0420 0.8371
v  5.4798 390.0420 -1.5433
v  4.2712 390.0420 -3.6367
v  2.4195 390.0420 -5.1904
v  0.1481 390.0420 -6.0171
v  -2.2691 390.0420 -6.0171
v  -4.5405 390.0420 -5.1904
v  -6.3922 390.0420 -3.6367
v  -7.6008 390.0420 -1.5433
v  -8.0205 390.0420 0.8371
v  -7.6008 390.0420 3.2176
v  -6.3922 390.0420 5.3110
v  -4.5405 390.0420 6.8647
v  -2.2691 390.0420 7.6914
v  0.1481 390.0420 7.6914
v  2.4195 390.0420 6.8647
v  4.2712 390.0420 5.3110
v  5.4798 390.0420 3.2176
# 144 vertices

vn 1.0000 -0.0000 0.0000
vn 0.9397 -0.0000 -0.3420
vn 0.7660 -0.0000 -0.6428
vn 0.5000 -0.0000 -0.8660
vn 0.1736 -0.0000 -0.9848
vn -0.1736 -0.0000 -0.9848
vn -0.5000 -0.0000 -0.8660
vn -0.7660 -0.0000 -0.6428
vn -0.9397 -0.0000 -0.3420
vn -1.0000 -0.0000 -0.0000
vn -0.9397 0.0000 0.3420
vn -0.7660 0.0000 0.6428
vn -0.5000 0.0000 0.8660
vn -0.1736 0.0000 0.9848
vn 0.1736 0.0000 0.9848
vn 0.5000 0.0000 0.8660
vn 0.7660 0.0000 0.6428
vn 0.9397 0.0000 0.3420
vn 0.4046 0.9145 0.0000
vn 0.3802 0.9145 -0.1384
vn 0.3099 0.9145 -0.2601
vn 0.2023 0.9145 -0.3504
vn 0.0703 0.9145 -0.3984
vn -0.0703 0.9145 -0.3984
vn -0.2023 0.9145 -0.3504
vn -0.3099 0.9145 -0.2601
vn -0.3802 0.9145 -0.1384
vn -0.4046 0.9145 -0.0000
vn -0.3802 0.9145 0.1384
vn -0.3099 0.9145 0.2601
vn -0.2023 0.9145 0.3504
vn -0.0703 0.9145 0.3984
vn 0.0703 0.9145 0.3984
vn 0.2023 0.9145 0.3504
vn 0.3099 0.9145 0.2601
vn 0.3802 0.9145 0.1384
vn 1.0000 0.0000 0.0000
vn 0.9397 0.0000 -0.3420
vn 0.7660 0.0000 -0.6428
vn 0.5000 0.0000 -0.8660
vn 0.1736 0.0000 -0.9848
vn -0.1736 0.0000 -0.9848
vn -0.5000 0.0000 -0.8660
vn -0.7660 0.0000 -0.6428
vn -0.9397 0.0000 -0.3420
vn -1.0000 0.0000 -0.0000
vn -0.9397 -0.0000 0.3420
vn -0.7660 -0.0000 0.6428
vn -0.5000 -0.0000 0.8660
vn -0.1736 -0.0000 0.9848
vn 0.1736 -0.0000 0.9848
vn 0.5000 -0.0000 0.8660
vn 0.7660 -0.0000 0.6428
vn 0.9397 -0.0000 0.3420
vn 0.4599 -0.8880 0.0000
vn 0.4322 -0.8880 -0.1573
vn 0.3523 -0.8880 -0.2956
vn 0.2300 -0.8880 -0.3983
vn 0.0799 -0.8880 -0.4529
vn -0.0799 -0.8880 -0.4529
vn -0.2300 -0.8880 -0.3983
vn -0.3523 -0.8880 -0.2956
vn -0.4322 -0.8880 -0.1573
vn -0.4599 -0.8880 0.0000
vn -0.4599 -0.8880 -0.0000
vn -0.4322 -0.8880 0.1573
vn -0.3523 -0.8880 0.2956
vn -0.2300 -0.8880 0.3983
vn -0.0799 -0.8880 0.4529
vn 0.0799 -0.8880 0.4529
vn 0.2300 -0.8880 0.3983
vn 0.3523 -0.8880 0.2956
vn 0.4322 -0.8880 0.1573
vn 0.9276 0.1597 -0.3376
vn 0.9872 0.1597 0.0000
vn 0.7562 0.1597 -0.6345
vn 0.4936 0.1597 -0.8549
vn 0.1714 0.1597 -0.9722
vn -0.1714 0.1597 -0.9722
vn -0.4936 0.1597 -0.8549
vn -0.7562 0.1597 -0.6345
vn -0.9276 0.1597 -0.3376
vn -1.0000 0.0000 0.0000
vn -0.9872 0.1597 -0.0000
vn -0.9276 0.1597 0.3376
vn -0.7562 0.1597 0.6345
vn -0.4936 0.1597 0.8549
vn -0.1714 0.1597 0.9722
vn 0.1714 0.1597 0.9722
vn 0.4936 0.1597 0.8549
vn 0.7562 0.1597 0.6345
vn 0.9276 0.1597 0.3376
vn 0.0000 -1.0000 -0.0000
vn 0.1644 0.9846 -0.0598
vn 0.1340 0.9846 -0.1124
vn 0.0875 0.9846 -0.1515
vn 0.1644 0.9846 0.0598
vn 0.0304 0.9846 -0.1723
vn -0.0304 0.9846 -0.1723
vn -0.1340 0.9846 -0.1124
vn -0.0875 0.9846 -0.1515
vn -0.1644 0.9846 -0.0598
vn -0.1749 0.9846 -0.0000
vn -0.1340 0.9846 0.1124
vn -0.1644 0.9846 0.0598
vn -0.0875 0.9846 0.1515
vn -0.0304 0.9846 0.1723
vn 0.0875 0.9846 0.1515
vn 0.0304 0.9846 0.1723
vn 0.1340 0.9846 0.1124
vn 0.1749 0.9846 -0.0000
vn 0.9472 0.3206 -0.0000
vn 0.8901 0.3206 -0.3240
vn 0.7256 0.3206 -0.6089
vn 0.4736 0.3206 -0.8203
vn 0.1645 0.3206 -0.9328
vn -0.1645 0.3206 -0.9328
vn -0.4736 0.3206 -0.8203
vn -0.7256 0.3206 -0.6089
vn -0.8901 0.3206 -0.3240
vn -0.9472 0.3206 -0.0000
vn -0.8901 0.3206 0.3240
vn -0.7256 0.3206 0.6089
vn -0.4736 0.3206 0.8203
vn -0.1645 0.3206 0.9328
vn 0.1645 0.3206 0.9328
vn 0.4736 0.3206 0.8203
vn 0.7256 0.3206 0.6089
vn 0.8901 0.3206 0.3240
vn 0.3119 0.9501 0.0000
vn 0.2931 0.9501 -0.1067
vn 0.2389 0.9501 -0.2005
vn 0.1559 0.9501 -0.2701
vn 0.0542 0.9501 -0.3072
vn -0.0542 0.9501 -0.3072
vn -0.1559 0.9501 -0.2701
vn -0.2389 0.9501 -0.2005
vn -0.2931 0.9501 -0.1067
vn -0.3119 0.9501 0.0000
vn -0.2931 0.9501 0.1067
vn -0.2389 0.9501 0.2005
vn -0.1559 0.9501 0.2701
vn -0.0542 0.9501 0.3072
vn 0.0542 0.9501 0.3072
vn 0.1559 0.9501 0.2701
vn 0.2389 0.9501 0.2005
vn 0.2931 0.9501 0.1067
# 147 vertex normals

vt 0.7500 0.0000 1.0000
vt 0.8056 0.0000 1.0000
vt 0.8056 0.2000 1.0000
vt 0.7500 0.2000 1.0000
vt 0.8611 0.0000 1.0000
vt 0.8611 0.2000 1.0000
vt 0.9167 0.0000 1.0000
vt 0.9167 0.2000 1.0000
vt 0.9722 0.0000 1.0000
vt 0.9722 0.2000 1.0000
vt 1.0278 0.0000 1.0000
vt 1.0278 0.2000 1.0000
vt 0.0278 0.0000 1.0000
vt 0.0833 0.0000 1.0000
vt 0.0833 0.2000 1.0000
vt 0.0278 0.2000 1.0000
vt 0.1389 0.0000 1.0000
vt 0.1389 0.2000 1.0000
vt 0.1944 0.0000 1.0000
vt 0.1944 0.2000 1.0000
vt 0.2500 0.0000 1.0000
vt 0.2500 0.2000 1.0000
vt 0.3056 0.0000 1.0000
vt 0.3056 0.2000 1.0000
vt 0.3611 0.0000 1.0000
vt 0.3611 0.2000 1.0000
vt 0.4167 0.0000 1.0000
vt 0.4167 0.2000 1.0000
vt 0.4722 0.0000 1.0000
vt 0.4722 0.2000 1.0000
vt 0.5278 0.0000 1.0000
vt 0.5278 0.2000 1.0000
vt 0.5833 0.0000 1.0000
vt 0.5833 0.2000 1.0000
vt 0.6389 0.0000 1.0000
vt 0.6389 0.2000 1.0000
vt 0.6944 0.0000 1.0000
vt 0.6944 0.2000 1.0000
vt 0.8056 0.4000 1.0000
vt 0.7500 0.4000 1.0000
vt 0.8611 0.4000 1.0000
vt 0.9167 0.4000 1.0000
vt 0.9722 0.4000 1.0000
vt 1.0278 0.4000 1.0000
vt 0.0833 0.4000 1.0000
vt 0.0278 0.4000 1.0000
vt 0.1389 0.4000 1.0000
vt 0.1944 0.4000 1.0000
vt 0.2500 0.4000 1.0000
vt 0.3056 0.4000 1.0000
vt 0.3611 0.4000 1.0000
vt 0.4167 0.4000 1.0000
vt 0.4722 0.4000 1.0000
vt 0.5278 0.4000 1.0000
vt 0.5833 0.4000 1.0000
vt 0.6389 0.4000 1.0000
vt 0.6944 0.4000 1.0000
vt 0.8056 0.6000 1.0000
vt 0.7500 0.6000 1.0000
vt 0.8611 0.6000 1.0000
vt 0.9167 0.6000 1.0000
vt 0.9722 0.6000 1.0000
vt 1.0278 0.6000 1.0000
vt 0.0833 0.6000 1.0000
vt 0.0278 0.6000 1.0000
vt 0.1389 0.6000 1.0000
vt 0.1944 0.6000 1.0000
vt 0.2500 0.6000 1.0000
vt 0.3056 0.6000 1.0000
vt 0.3611 0.6000 1.0000
vt 0.4167 0.6000 1.0000
vt 0.4722 0.6000 1.0000
vt 0.5278 0.6000 1.0000
vt 0.5833 0.6000 1.0000
vt 0.6389 0.6000 1.0000
vt 0.6944 0.6000 1.0000
vt 0.8056 0.8000 1.0000
vt 0.7500 0.8000 1.0000
vt 0.8611 0.8000 1.0000
vt 0.9167 0.8000 1.0000
vt 0.9722 0.8000 1.0000
vt 1.0278 0.8000 1.0000
vt 0.0833 0.8000 1.0000
vt 0.0278 0.8000 1.0000
vt 0.1389 0.8000 1.0000
vt 0.1944 0.8000 1.0000
vt 0.2500 0.8000 1.0000
vt 0.3056 0.8000 1.0000
vt 0.3611 0.8000 1.0000
vt 0.4167 0.8000 1.0000
vt 0.4722 0.8000 1.0000
vt 0.5278 0.8000 1.0000
vt 0.5833 0.8000 1.0000
vt 0.6389 0.8000 1.0000
vt 0.6944 0.8000 1.0000
vt 0.8056 0.9566 1.0000
vt 0.7500 0.9566 1.0000
vt 0.8611 0.9566 1.0000
vt 0.9167 0.9566 1.0000
vt 0.9722 0.9566 1.0000
vt 1.0278 0.9566 1.0000
vt 0.0833 0.9566 1.0000
vt 0.0278 0.9566 1.0000
vt 0.1389 0.9566 1.0000
vt 0.1944 0.9566 1.0000
vt 0.2500 0.9566 1.0000
vt 0.3056 0.9566 1.0000
vt 0.3611 0.9566 1.0000
vt 0.4167 0.9566 1.0000
vt 0.4722 0.9566 1.0000
vt 0.5278 0.9566 1.0000
vt 0.5833 0.9566 1.0000
vt 0.6389 0.9566 1.0000
vt 0.6944 0.9566 1.0000
vt 0.8214 0.8830 -0.2500
vt 0.9330 0.7500 -0.2500
vt 0.9924 0.5868 -0.2500
vt 0.5000 1.0000 -0.2500
vt 0.9924 0.4132 -0.2500
vt 0.9330 0.2500 -0.2500
vt 0.6710 0.0302 -0.2500
vt 0.8214 0.1170 -0.2500
vt 0.5000 0.0000 -0.2500
vt 0.3290 0.0302 -0.2500
vt 0.0670 0.2500 -0.2500
vt 0.1786 0.1170 -0.2500
vt 0.0076 0.4132 -0.2500
vt 0.0076 0.5868 -0.2500
vt 0.1786 0.8830 -0.2500
vt 0.0670 0.7500 -0.2500
vt 0.3290 0.9698 -0.2500
vt 0.6710 0.9698 -0.2500
vt 0.3392 0.9418 0.2500
vt 0.1978 0.8601 0.2500
vt 0.0929 0.7351 0.2500
vt 0.6608 0.9418 0.2500
vt 0.0370 0.5816 0.2500
vt 0.0370 0.4184 0.2500
vt 0.1978 0.1399 0.2500
vt 0.0929 0.2649 0.2500
vt 0.3392 0.0582 0.2500
vt 0.5000 0.0299 0.2500
vt 0.8022 0.1399 0.2500
vt 0.6608 0.0582 0.2500
vt 0.9071 0.2649 0.2500
vt 0.9630 0.4184 0.2500
vt 0.9071 0.7351 0.2500
vt 0.9630 0.5816 0.2500
vt 0.8022 0.8601 0.2500
vt 0.5000 0.9701 0.2500
vt 0.4991 0.9901 0.2500
vt 0.4982 1.0101 0.2500
vt 0.3272 0.9799 0.2500
vt 0.3332 0.9608 0.2500
vt 0.3315 0.9602 0.2500
vt 0.3239 0.9787 0.2500
vt 0.1735 0.8919 0.2500
vt 0.1857 0.8760 0.2500
vt 0.1843 0.8749 0.2500
vt 0.1708 0.8896 0.2500
vt 0.0591 0.7566 0.2500
vt 0.0760 0.7458 0.2500
vt 0.0751 0.7443 0.2500
vt 0.0574 0.7535 0.2500
vt -0.0020 0.5903 0.2500
vt 0.0175 0.5860 0.2500
vt 0.0172 0.5842 0.2500
vt -0.0027 0.5868 0.2500
vt -0.0027 0.4132 0.2500
vt 0.0172 0.4158 0.2500
vt 0.0175 0.4140 0.2500
vt -0.0020 0.4097 0.2500
vt 0.0574 0.2465 0.2500
vt 0.0751 0.2557 0.2500
vt 0.0760 0.2542 0.2500
vt 0.0591 0.2434 0.2500
vt 0.1708 0.1104 0.2500
vt 0.1843 0.1251 0.2500
vt 0.1857 0.1240 0.2500
vt 0.1735 0.1081 0.2500
vt 0.3239 0.0213 0.2500
vt 0.3315 0.0398 0.2500
vt 0.3332 0.0392 0.2500
vt 0.3272 0.0201 0.2500
vt 0.4982 -0.0101 0.2500
vt 0.4991 0.0099 0.2500
vt 0.5009 0.0099 0.2500
vt 0.5018 -0.0101 0.2500
vt 0.6728 0.0201 0.2500
vt 0.6668 0.0392 0.2500
vt 0.6685 0.0398 0.2500
vt 0.6761 0.0213 0.2500
vt 0.8265 0.1081 0.2500
vt 0.8143 0.1240 0.2500
vt 0.8157 0.1251 0.2500
vt 0.8292 0.1104 0.2500
vt 0.9409 0.2434 0.2500
vt 0.9240 0.2542 0.2500
vt 0.9249 0.2557 0.2500
vt 0.9426 0.2465 0.2500
vt 1.0020 0.4097 0.2500
vt 0.9825 0.4140 0.2500
vt 0.9828 0.4158 0.2500
vt 1.0027 0.4132 0.2500
vt 1.0027 0.5868 0.2500
vt 0.9828 0.5842 0.2500
vt 0.9825 0.5860 0.2500
vt 1.0020 0.5903 0.2500
vt 0.9426 0.7535 0.2500
vt 0.9249 0.7443 0.2500
vt 0.9240 0.7458 0.2500
vt 0.9409 0.7566 0.2500
vt 0.8292 0.8896 0.2500
vt 0.8157 0.8749 0.2500
vt 0.8143 0.8760 0.2500
vt 0.8265 0.8919 0.2500
vt 0.6761 0.9787 0.2500
vt 0.6685 0.9602 0.2500
vt 0.6668 0.9608 0.2500
vt 0.6728 0.9799 0.2500
vt 0.5018 1.0101 0.2500
vt 0.5009 0.9901 0.2500
# 222 texture coords

g flag
usemtl 01___Default
s 1
f 1/1/1 2/2/2 3/3/2 4/4/1 
f 2/2/2 5/5/3 6/6/3 3/3/2 
f 5/5/3 7/7/4 8/8/4 6/6/3 
f 7/7/4 9/9/5 10/10/5 8/8/4 
f 9/9/5 11/11/6 12/12/6 10/10/5 
f 11/13/6 13/14/7 14/15/7 12/16/6 
f 13/14/7 15/17/8 16/18/8 14/15/7 
f 15/17/8 17/19/9 18/20/9 16/18/8 
f 17/19/9 19/21/10 20/22/10 18/20/9 
f 19/21/10 21/23/11 22/24/11 20/22/10 
f 21/23/11 23/25/12 24/26/12 22/24/11 
f 23/25/12 25/27/13 26/28/13 24/26/12 
f 25/27/13 27/29/14 28/30/14 26/28/13 
f 27/29/14 29/31/15 30/32/15 28/30/14 
f 29/31/15 31/33/16 32/34/16 30/32/15 
f 31/33/16 33/35/17 34/36/17 32/34/16 
f 33/35/17 35/37/18 36/38/18 34/36/17 
f 35/37/18 1/1/1 4/4/1 36/38/18 
s 2
f 4/4/19 3/3/20 37/39/20 38/40/19 
f 3/3/20 6/6/21 39/41/21 37/39/20 
f 6/6/21 8/8/22 40/42/22 39/41/21 
f 8/8/22 10/10/23 41/43/23 40/42/22 
f 10/10/23 12/12/24 42/44/24 41/43/23 
f 12/16/24 14/15/25 43/45/25 42/46/24 
f 14/15/25 16/18/26 44/47/26 43/45/25 
f 16/18/26 18/20/27 45/48/27 44/47/26 
f 18/20/27 20/22/28 46/49/28 45/48/27 
f 20/22/28 22/24/29 47/50/29 46/49/28 
f 22/24/29 24/26/30 48/51/30 47/50/29 
f 24/26/30 26/28/31 49/52/31 48/51/30 
f 26/28/31 28/30/32 50/53/32 49/52/31 
f 28/30/32 30/32/33 51/54/33 50/53/32 
f 30/32/33 32/34/34 52/55/34 51/54/33 
f 32/34/34 34/36/35 53/56/35 52/55/34 
f 34/36/35 36/38/36 54/57/36 53/56/35 
f 36/38/36 4/4/19 38/40/19 54/57/36 
s 1
f 38/40/37 37/39/38 55/58/38 56/59/1 
f 37/39/38 39/41/39 57/60/39 55/58/38 
f 39/41/39 40/42/40 58/61/40 57/60/39 
f 40/42/40 41/43/41 59/62/41 58/61/40 
f 41/43/41 42/44/42 60/63/42 59/62/41 
f 42/46/42 43/45/43 61/64/43 60/65/42 
f 43/45/43 44/47/44 62/66/44 61/64/43 
f 44/47/44 45/48/45 63/67/45 62/66/44 
f 45/48/45 46/49/10 64/68/46 63/67/45 
f 46/49/10 47/50/47 65/69/47 64/68/46 
f 47/50/47 48/51/48 66/70/48 65/69/47 
f 48/51/48 49/52/49 67/71/49 66/70/48 
f 49/52/49 50/53/50 68/72/50 67/71/49 
f 50/53/50 51/54/51 69/73/51 68/72/50 
f 51/54/51 52/55/52 70/74/52 69/73/51 
f 52/55/52 53/56/53 71/75/53 70/74/52 
f 53/56/53 54/57/54 72/76/54 71/75/53 
f 54/57/54 38/40/37 56/59/1 72/76/54 
s 2
f 56/59/55 55/58/56 73/77/56 74/78/55 
f 55/58/56 57/60/57 75/79/57 73/77/56 
f 57/60/57 58/61/58 76/80/58 75/79/57 
f 58/61/58 59/62/59 77/81/59 76/80/58 
f 59/62/59 60/63/60 78/82/60 77/81/59 
f 60/65/60 61/64/61 79/83/61 78/84/60 
f 61/64/61 62/66/62 80/85/62 79/83/61 
f 62/66/62 63/67/63 81/86/63 80/85/62 
f 63/67/63 64/68/64 82/87/65 81/86/63 
f 64/68/64 65/69/66 83/88/66 82/87/65 
f 65/69/66 66/70/67 84/89/67 83/88/66 
f 66/70/67 67/71/68 85/90/68 84/89/67 
f 67/71/68 68/72/69 86/91/69 85/90/68 
f 68/72/69 69/73/70 87/92/70 86/91/69 
f 69/73/70 70/74/71 88/93/71 87/92/70 
f 70/74/71 71/75/72 89/94/72 88/93/71 
f 71/75/72 72/76/73 90/95/73 89/94/72 
f 72/76/73 56/59/55 74/78/55 90/95/73 
s 1
f 74/78/1 73/77/2 91/96/74 92/97/75 
f 73/77/2 75/79/3 93/98/76 91/96/74 
f 75/79/3 76/80/4 94/99/77 93/98/76 
f 76/80/4 77/81/5 95/100/78 94/99/77 
f 77/81/5 78/82/6 96/101/79 95/100/78 
f 78/84/6 79/83/7 97/102/80 96/103/79 
f 79/83/7 80/85/8 98/104/81 97/102/80 
f 80/85/8 81/86/9 99/105/82 98/104/81 
f 81/86/9 82/87/83 100/106/84 99/105/82 
f 82/87/83 83/88/11 101/107/85 100/106/84 
f 83/88/11 84/89/12 102/108/86 101/107/85 
f 84/89/12 85/90/13 103/109/87 102/108/86 
f 85/90/13 86/91/14 104/110/88 103/109/87 
f 86/91/14 87/92/15 105/111/89 104/110/88 
f 87/92/15 88/93/16 106/112/90 105/111/89 
f 88/93/16 89/94/17 107/113/91 106/112/90 
f 89/94/17 90/95/18 108/114/92 107/113/91 
f 90/95/18 74/78/1 92/97/75 108/114/92 
s 2
f 33/115/93 31/116/93 29/117/93 1/118/93 
f 29/117/93 27/119/93 25/120/93 21/121/93 
f 25/120/93 23/122/93 21/121/93 
f 21/121/93 19/123/93 17/124/93 13/125/93 
f 17/124/93 15/126/93 13/125/93 
f 13/125/93 11/127/93 9/128/93 5/129/93 
f 9/128/93 7/130/93 5/129/93 
f 21/121/93 13/125/93 5/129/93 29/117/93 
f 5/129/93 2/131/93 1/118/93 29/117/93 
f 35/132/93 33/115/93 1/118/93 
f 109/133/94 110/134/95 111/135/96 112/136/97 
f 111/135/96 113/137/98 114/138/99 115/139/100 
f 114/138/99 116/140/101 115/139/100 
f 115/139/100 117/141/102 118/142/103 119/143/104 
f 118/142/103 120/144/105 119/143/104 
f 119/143/104 121/145/106 122/146/107 123/147/108 
f 122/146/107 124/148/109 123/147/108 
f 115/139/100 119/143/104 123/147/108 111/135/96 
f 123/147/108 125/149/110 112/136/97 111/135/96 
f 126/150/111 109/133/94 112/136/97 
s 1
f 127/151/112 92/152/75 91/153/74 128/154/113 
f 128/155/113 91/156/74 93/157/76 129/158/114 
f 129/159/114 93/160/76 94/161/77 130/162/115 
f 130/163/115 94/164/77 95/165/78 131/166/116 
f 131/167/116 95/168/78 96/169/79 132/170/117 
f 132/171/117 96/172/79 97/173/80 133/174/118 
f 133/175/118 97/176/80 98/177/81 134/178/119 
f 134/179/119 98/180/81 99/181/82 135/182/120 
f 135/183/120 99/184/82 100/185/84 136/186/121 
f 136/187/121 100/188/84 101/189/85 137/190/122 
f 137/191/122 101/192/85 102/193/86 138/194/123 
f 138/195/123 102/196/86 103/197/87 139/198/124 
f 139/199/124 103/200/87 104/201/88 140/202/125 
f 140/203/125 104/204/88 105/205/89 141/206/126 
f 141/207/126 105/208/89 106/209/90 142/210/127 
f 142/211/127 106/212/90 107/213/91 143/214/128 
f 143/215/128 107/216/91 108/217/92 144/218/129 
f 144/219/129 108/220/92 92/221/75 127/222/112 
s 2
f 126/150/111 127/151/130 128/154/131 109/133/94 
f 109/133/94 128/155/131 129/158/132 110/134/95 
f 110/134/95 129/159/132 130/162/133 111/135/96 
f 111/135/96 130/163/133 131/166/134 113/137/98 
f 113/137/98 131/167/134 132/170/135 114/138/99 
f 114/138/99 132/171/135 133/174/136 116/140/101 
f 116/140/101 133/175/136 134/178/137 115/139/100 
f 115/139/100 134/179/137 135/182/138 117/141/102 
f 117/141/102 135/183/138 136/186/139 118/142/103 
f 118/142/103 136/187/139 137/190/140 120/144/105 
f 120/144/105 137/191/140 138/194/141 119/143/104 
f 119/143/104 138/195/141 139/198/142 121/145/106 
f 121/145/106 139/199/142 140/202/143 122/146/107 
f 122/146/107 140/203/143 141/206/144 124/148/109 
f 124/148/109 141/207/144 142/210/145 123/147/108 
f 123/147/108 142/211/145 143/214/146 125/149/110 
f 125/149/110 143/215/146 144/218/147 112/136/97 
f 112/136/97 144/219/147 127/222/130 126/150/111 
# 138 polygons - 8 triangles

#
# object Object001
#

v  61.4272 339.8314 -6.6590
v  57.7444 384.9033 -5.4408
v  57.7444 339.8314 -5.4408
v  12.9964 384.9033 -3.2267
v  17.4382 339.8314 -4.3040
v  17.4382 384.9033 -4.3039
v  45.2050 384.9033 -4.2271
v  49.6858 371.3817 -4.2646
v  49.6858 384.9033 -4.2646
v  75.2543 384.9033 -5.2420
v  64.9618 384.9033 -7.4757
v  71.8202 339.8314 -5.9195
v  21.8801 339.8314 -5.0395
v  30.7639 339.8314 -5.8209
v  26.3220 384.9033 -5.5169
v  78.7575 339.8314 -5.0744
v  75.2543 339.8314 -5.2420
v  40.4017 339.8314 -4.5435
v  45.2050 339.8314 -4.2271
v  78.7575 384.9033 -5.0744
v  82.3729 339.8314 -5.8091
v  82.3729 384.9033 -5.8091
v  30.7639 384.9033 -5.8209
v  61.4272 384.9033 -6.6590
v  8.5545 339.8314 -1.7667
v  4.1126 384.9033 -0.0416
v  4.1126 339.8314 -0.0416
v  35.3050 384.9033 -5.8295
v  40.4017 384.9033 -4.5435
v  86.1404 339.8314 -5.1626
v  64.9618 339.8314 -7.4757
v  86.1404 384.9033 -5.1626
v  49.6858 339.8314 -4.2646
v  53.8520 339.8314 -4.6536
v  53.8520 384.9033 -4.6536
v  35.3050 339.8314 -5.8295
v  8.5545 384.9033 -1.7667
v  12.9964 339.8314 -3.2267
v  21.8801 384.9033 -5.0395
# 39 vertices

vn 0.2699 -0.0000 0.9629
vn 0.2566 -0.0000 0.9665
vn 0.2742 -0.0000 0.9617
vn 0.1997 -0.0000 0.9799
vn -0.0287 -0.0000 0.9996
vn 0.0507 -0.0000 0.9987
vn -0.1299 0.0007 0.9915
vn 0.0062 0.0007 1.0000
vn -0.2075 0.0001 0.9782
vn 0.1262 0.0009 0.9920
vn 0.0442 0.0009 0.9990
vn 0.0876 0.0001 0.9962
vn 0.0763 0.0000 0.9971
vn -0.1210 0.0000 0.9927
vn -0.1558 -0.0000 0.9878
vn 0.0153 0.0000 0.9999
vn 0.0351 -0.0000 0.9994
vn 0.3373 -0.0000 0.9414
vn 0.3620 -0.0000 0.9322
vn -0.1223 -0.0000 0.9925
vn -0.1691 0.0000 0.9856
vn 0.0020 -0.0000 1.0000
vn 0.1458 -0.0000 0.9893
vn 0.1352 -0.0000 0.9908
# 24 vertex normals

vt 62.4877 7.4962 339.8314
vt 58.8050 6.2779 384.9033
vt 58.8050 6.2779 339.8314
vt 14.0569 4.0639 384.9033
vt 18.4988 5.1411 339.8314
vt 18.4988 5.1411 384.9033
vt 46.2655 5.0643 384.9033
vt 50.7463 5.1017 371.3817
vt 50.7463 5.1017 384.9033
vt 76.3148 6.0791 384.9033
vt 66.0223 8.3129 384.9033
vt 72.8808 6.7567 339.8314
vt 22.9406 5.8766 339.8314
vt 31.8244 6.6581 339.8314
vt 27.3825 6.3540 384.9033
vt 79.8180 5.9116 339.8314
vt 76.3148 6.0791 339.8314
vt 41.4623 5.3807 339.8314
vt 46.2655 5.0643 339.8314
vt 79.8180 5.9116 384.9033
vt 83.4335 6.6462 339.8314
vt 83.4335 6.6462 384.9033
vt 31.8244 6.6581 384.9033
vt 62.4877 7.4962 384.9033
vt 9.6150 2.6038 339.8314
vt 5.1731 0.8787 384.9033
vt 5.1731 0.8787 339.8314
vt 36.3655 6.6667 384.9033
vt 41.4623 5.3807 384.9033
vt 87.2009 5.9998 339.8314
vt 66.0223 8.3129 339.8314
vt 87.2009 5.9998 384.9033
vt 50.7463 5.1017 339.8314
vt 54.9125 5.4908 339.8314
vt 54.9125 5.4908 384.9033
vt 36.3655 6.6667 339.8314
vt 9.6150 2.6038 384.9033
vt 14.0569 4.0639 339.8314
vt 22.9406 5.8766 384.9033
# 39 texture coords

g Object001
usemtl Material__3
s 1
f 145/223/148 146/224/149 147/225/149 
f 148/226/150 149/227/151 150/228/151 
f 151/229/152 152/230/153 153/231/153 
f 154/232/154 155/233/155 156/234/156 
f 157/235/157 158/236/158 159/237/159 
f 160/238/160 154/232/154 161/239/161 
f 162/240/162 163/241/152 151/229/152 
f 164/242/160 165/243/163 166/244/163 
f 167/245/164 159/237/159 158/236/158 
f 146/224/149 145/223/148 168/246/148 
f 169/247/165 170/248/166 171/249/166 
f 172/250/167 162/240/162 173/251/162 
f 174/252/168 166/244/163 165/243/163 
f 156/234/156 155/233/155 175/253/169 
f 166/244/163 174/252/168 176/254/168 
f 177/255/153 178/256/170 179/257/170 
f 162/240/162 172/250/167 180/258/167 
f 170/248/166 169/247/165 181/259/165 
f 149/227/151 148/226/150 182/260/150 
f 154/232/154 160/238/160 164/242/160 
f 165/243/163 164/242/160 160/238/160 
f 158/236/158 180/258/167 172/250/167 
f 146/224/149 179/257/170 178/256/170 
f 151/229/152 173/251/162 162/240/162 
f 168/246/148 175/253/169 155/233/155 
f 178/256/170 147/225/149 146/224/149 
f 183/261/171 150/228/151 149/227/151 
f 172/250/167 167/245/164 158/236/158 
f 175/253/169 168/246/148 145/223/148 
f 179/257/170 153/231/153 152/230/153 
f 151/229/152 177/255/153 152/230/153 
f 179/257/170 152/230/153 177/255/153 
f 177/255/153 151/229/152 163/241/152 
f 181/259/165 182/260/150 148/226/150 
f 149/227/151 157/235/157 183/261/171 
f 182/260/150 181/259/165 169/247/165 
f 156/234/156 161/239/161 154/232/154 
f 159/237/159 183/261/171 157/235/157 
# 0 polygons - 38 triangles

